<svg xmlns="http://www.w3.org/2000/svg" viewBox="0 0 1200 340" width="1200" height="340" role="img" aria-label="Poplygo: anonymous Q&amp;A and instant polls everyone actually joins">
  <defs>
    <pattern id="grid" width="40" height="40" patternUnits="userSpaceOnUse">
      <path d="M40 0 L0 0 L0 40" fill="none" stroke="#e9edf2" stroke-width="1"/>
    </pattern>
    <filter id="hardshadow" x="-20%" y="-20%" width="140%" height="140%">
      <feDropShadow dx="5" dy="5" stdDeviation="0" flood-color="#000000" flood-opacity="1"/>
    </filter>
  </defs>

  <!-- panel -->
  <rect x="6" y="6" width="1188" height="328" rx="22" fill="#ffffff" stroke="#111111" stroke-width="3"/>
  <rect x="6" y="6" width="1188" height="328" rx="22" fill="url(#grid)" opacity="0.9"/>

  <!-- top ruler ticks -->
  <g stroke="#c9d2db" stroke-width="1" font-family="'JetBrains Mono',monospace" font-size="9" fill="#aab4bf">
    <line x1="6" y1="34" x2="1194" y2="34"/>
    <text x="120" y="26">200</text><line x1="120" y1="28" x2="120" y2="34"/>
    <text x="420" y="26">500</text><line x1="420" y1="28" x2="420" y2="34"/>
    <text x="720" y="26">800</text><line x1="720" y1="28" x2="720" y2="34"/>
    <text x="1020" y="26">1100</text><line x1="1020" y1="28" x2="1020" y2="34"/>
  </g>

  <!-- clock -->
  <text x="600" y="80" text-anchor="middle" font-family="'JetBrains Mono',monospace" font-size="15" fill="#ff4d87" letter-spacing="1">11:54:05 PM</text>

  <!-- say hello to -->
  <text x="600" y="120" text-anchor="middle" font-family="Georgia,'Times New Roman',serif" font-style="italic" font-size="20" fill="#2b2b2b">say hello to</text>

  <!-- wordmark -->
  <text x="592" y="205" text-anchor="middle" font-family="'JetBrains Mono','Courier New',monospace" font-size="94" font-weight="800" fill="#111111" letter-spacing="6">POPLYGO</text>

  <!-- LIVE NOW pill -->
  <g transform="translate(940,178)" filter="url(#hardshadow)">
    <rect x="0" y="0" width="150" height="42" rx="21" fill="#ff4d87" stroke="#111111" stroke-width="3"/>
    <circle cx="28" cy="21" r="6" fill="#ffffff"><animate attributeName="opacity" values="1;0.2;1" dur="1.4s" repeatCount="indefinite"/></circle>
    <text x="92" y="28" text-anchor="middle" font-family="'JetBrains Mono',monospace" font-size="16" font-weight="800" fill="#ffffff" letter-spacing="1">LIVE NOW</text>
  </g>

  <!-- tagline -->
  <text x="600" y="252" text-anchor="middle" font-family="'Segoe UI',Arial,sans-serif" font-size="19" fill="#20242a">Run anonymous Q&amp;A and instant polls everyone actually joins.</text>
  <text x="600" y="280" text-anchor="middle" font-family="'Segoe UI',Arial,sans-serif" font-size="19" fill="#20242a">Up and running in seconds. Free, no signup.</text>

  <!-- floating speech bubbles -->
  <g filter="url(#hardshadow)">
    <rect x="60" y="70" width="230" height="46" rx="12" fill="#b7f5c9" stroke="#111111" stroke-width="3"/>
    <path d="M92 116 L82 138 L112 116 Z" fill="#b7f5c9" stroke="#111111" stroke-width="3"/>
  </g>
  <text x="175" y="99" text-anchor="middle" font-family="'JetBrains Mono',monospace" font-size="15" font-weight="700" fill="#111111">1,200+ sessions hosted</text>

  <g filter="url(#hardshadow)">
    <rect x="905" y="88" width="210" height="46" rx="12" fill="#ffc2d4" stroke="#111111" stroke-width="3"/>
    <path d="M1080 134 L1096 154 L1050 134 Z" fill="#ffc2d4" stroke="#111111" stroke-width="3"/>
  </g>
  <text x="1010" y="117" text-anchor="middle" font-family="'JetBrains Mono',monospace" font-size="15" font-weight="700" fill="#111111">100% free, forever</text>

  <g filter="url(#hardshadow)">
    <rect x="70" y="232" width="215" height="46" rx="12" fill="#bfe3ff" stroke="#111111" stroke-width="3"/>
    <path d="M104 278 L94 300 L124 278 Z" fill="#bfe3ff" stroke="#111111" stroke-width="3"/>
  </g>
  <text x="177" y="261" text-anchor="middle" font-family="'JetBrains Mono',monospace" font-size="15" font-weight="700" fill="#111111">no signup, any device</text>

  <!-- floating dot -->
  <circle cx="1120" cy="60" r="7" fill="#ff4d87"><animate attributeName="cy" values="60;50;60" dur="3s" repeatCount="indefinite"/></circle>
</svg>
